# xmcd
# Copyright (C) 1995-1998 Ti Kan
#
# Track frame offsets:
#       150
#       39346
#       53986
#       84591
#       105858
#       130631
#       155908
#
# Disc length: 2498 seconds
#
# Revision: 0
# Processed by: cddbd v1.5.2PL0 Copyright (c) Steve Scherf et al.
# Submitted via: CD-Import v1.0
#
DISCID=4e09c007
DTITLE=Anna Von Schrottenberg - Despite Eisler
DYEAR=1900
DGENRE=
TTITLE0=Die Flucht (Bercht)
TTITLE1=An Den Kleinen Radioappart (Brecht)
TTITLE2=Hotelzimmer 1942 (Brecht)
TTITLE3=5 Elegien (Brecht) - Iv
TTITLE4=Über Den Selbstmord (Brecht)
TTITLE5=Zwei Lieder Nach Worten Von Pascal - I
TTITLE6=Zwei Lieder Nach Worten Von Pascal -Ii
EXTD=
EXTT0=
EXTT1=
EXTT2=
EXTT3=
EXTT4=
EXTT5=
EXTT6=
PLAYORDER=
